<svg xmlns="http://www.w3.org/2000/svg" width="48" height="48">
  <path
    d="M20.8815,17.242981640625C20.8815,17.242981640625,15.3274,19.186081640624998,15.3274,19.186081640624998C15.3274,19.186081640624998,7.00428,9.231031640625,7.00428,9.231031640625C7.00428,9.231031640625,0,5.211181640625,0,5.211181640625C0,5.211181640625,23.4657,45.854981640625,23.4657,45.854981640625C23.4657,45.854981640625,23.4866,37.779081640625,23.4866,37.779081640625C23.4866,37.779081640625,19.0268,25.593481640625,19.0268,25.593481640625C19.0268,25.593481640625,26.0933,20.249981640625002,26.0933,20.249981640625002C26.0933,20.249981640625002,20.8815,17.242981640625,20.8815,17.242981640625C20.8815,17.242981640625,20.8815,17.242981640625,20.8815,17.242981640625Z"
    fill="#00A2E4" />

  <path
    d="M21.3947796875,16.3540666015625C21.3947796875,16.3540666015625,20.3004796875,10.572586601562499,20.3004796875,10.572586601562499C20.3004796875,10.572586601562499,7.5175796875,8.3419766015625,7.5175796875,8.3419766015625C7.5175796875,8.3419766015625,0.5341796875,4.2857666015625,0.5341796875,4.2857666015625C0.5341796875,4.2857666015625,47.4655796875,4.2857666015625,47.4655796875,4.2857666015625C47.4655796875,4.2857666015625,40.4817796875,8.3419766015625,40.4817796875,8.3419766015625C40.4817796875,8.3419766015625,27.6992796875,10.572586601562499,27.6992796875,10.572586601562499C27.6992796875,10.572586601562499,26.6045796875,19.364166601562502,26.6045796875,19.364166601562502C26.6045796875,19.364166601562502,21.3947796875,16.3540666015625,21.3947796875,16.3540666015625C21.3947796875,16.3540666015625,21.3947796875,16.3540666015625,21.3947796875,16.3540666015625Z"
    fill="#00A2E4" />
  <path
    d="M40.995571874999996,9.231031640625C40.995571874999996,9.231031640625,48.000271874999996,5.211181640625,48.000271874999996,5.211181640625C48.000271874999996,5.211181640625,24.534159275,45.854981640625,24.534159275,45.854981640625C24.534159275,45.854981640625,24.513671875,37.779081640625,24.513671875,37.779081640625C24.513671875,37.779081640625,40.995571874999996,9.231031640625,40.995571874999996,9.231031640625C40.995571874999996,9.231031640625,40.995571874999996,9.231031640625,40.995571874999996,9.231031640625Z"
    fill="#464B51" />
</svg>